<svg width="30" height="30" viewBox="0 0 30 30" fill="none" xmlns="http://www.w3.org/2000/svg">
<rect x="1" y="1" width="28" height="28" rx="14" stroke="black" stroke-width="2"/>
<path d="M22.3334 7.61487C22.4936 7.75237 22.5446 7.97901 22.4586 8.17202C20.9989 11.4485 17.9352 15.9748 15.6924 18.334C15.0867 18.9712 14.4372 19.3613 13.9387 19.5925C13.7426 19.6835 13.5688 19.7503 13.4288 19.7982C13.4119 20.0151 13.3715 20.3119 13.2758 20.6268C13.0845 21.2561 12.6406 22.0394 11.6477 22.288C10.6251 22.5439 9.48583 22.5443 8.71168 22.4151C8.51574 22.3824 8.33298 22.3398 8.17533 22.2864C8.02771 22.2364 7.86078 22.1635 7.73096 22.0498C7.66344 21.9906 7.58367 21.901 7.53717 21.7751C7.48645 21.6378 7.48766 21.4892 7.54065 21.3521C7.63126 21.1177 7.84242 20.9894 7.98071 20.9202C8.35558 20.7325 8.57641 20.488 8.80748 20.132C8.89731 19.9937 8.98297 19.8477 9.08095 19.6808C9.11618 19.6207 9.15301 19.558 9.19219 19.4919C9.33665 19.2483 9.50342 18.9766 9.71341 18.6822C10.2168 17.9766 10.8586 17.799 11.3783 17.8264C11.4987 17.8327 11.6104 17.8498 11.7104 17.8717C11.7698 17.7076 11.8456 17.5094 11.9374 17.2914C12.1865 16.7005 12.5649 15.9366 13.0697 15.3158C15.1443 12.765 18.9629 9.38892 21.7643 7.57644C21.9416 7.46174 22.1731 7.47738 22.3334 7.61487Z" fill="black"/>
</svg>
