<svg width="30" height="30" viewBox="0 0 30 30" fill="none" xmlns="http://www.w3.org/2000/svg">
<rect x="1" y="1" width="28" height="28" rx="14" stroke="black" stroke-width="2"/>
<path d="M6 15.1367C6 10.1662 10.0294 6.13672 15 6.13672C19.9706 6.13672 24 10.1662 24 15.1367C24 20.1073 19.9706 24.1367 15 24.1367C10.0294 24.1367 6 20.1073 6 15.1367ZM14.4375 7.34784C13.6844 7.57816 12.9352 8.27109 12.3143 9.4352C12.1533 9.7371 12.0045 10.065 11.8699 10.4158C12.6632 10.5927 13.5268 10.7055 14.4375 10.7386V7.34784ZM10.7796 10.1186C10.9404 9.68649 11.1218 9.28066 11.3217 8.90579C11.5228 8.52881 11.7472 8.17568 11.9932 7.85611C11.0282 8.25506 10.1599 8.84026 9.43288 9.56689C9.83955 9.77371 10.2909 9.95921 10.7796 10.1186ZM9.94701 14.5742C9.98784 13.3705 10.1589 12.2259 10.4379 11.1905C9.79724 10.9821 9.206 10.7301 8.67802 10.4403C7.80721 11.6107 7.25368 13.0311 7.14478 14.5742H9.94701ZM11.5223 11.4904C11.272 12.4215 11.1131 13.4638 11.0727 14.5742H14.4375V11.8643C13.414 11.8295 12.4317 11.7005 11.5223 11.4904ZM15.5625 11.8643V14.5742H18.9273C18.8869 13.4638 18.728 12.4215 18.4777 11.4904C17.5683 11.7005 16.586 11.8295 15.5625 11.8643ZM11.0727 15.6992C11.1131 16.8096 11.272 17.852 11.5223 18.783C12.4317 18.5729 13.414 18.4439 14.4375 18.4092V15.6992H11.0727ZM15.5625 15.6992V18.4092C16.586 18.4439 17.5683 18.5729 18.4777 18.783C18.728 17.852 18.8869 16.8096 18.9273 15.6992H15.5625ZM11.8699 19.8576C12.0045 20.2084 12.1533 20.5363 12.3143 20.8382C12.9352 22.0023 13.6844 22.6953 14.4375 22.9256V19.5348C13.5268 19.5679 12.6632 19.6807 11.8699 19.8576ZM11.9932 22.4173C11.7472 22.0977 11.5227 21.7446 11.3217 21.3676C11.1218 20.9928 10.9404 20.5869 10.7796 20.1548C10.2909 20.3142 9.83955 20.4997 9.43288 20.7065C10.1599 21.4332 11.0282 22.0184 11.9932 22.4173ZM10.4379 19.0829C10.1589 18.0475 9.98784 16.903 9.94701 15.6992H7.14478C7.25368 17.2424 7.80721 18.6628 8.67802 19.8331C9.206 19.5433 9.79724 19.2913 10.4379 19.0829ZM18.0068 22.4173C18.9718 22.0184 19.8401 21.4332 20.5671 20.7065C20.1604 20.4997 19.7091 20.3142 19.2204 20.1548C19.0596 20.5869 18.8782 20.9928 18.6783 21.3676C18.4772 21.7446 18.2528 22.0977 18.0068 22.4173ZM15.5625 19.5348V22.9256C16.3156 22.6953 17.0648 22.0023 17.6857 20.8382C17.8467 20.5363 17.9955 20.2084 18.1301 19.8576C17.3368 19.6807 16.4732 19.5679 15.5625 19.5348ZM19.5621 19.0829C20.2028 19.2913 20.794 19.5433 21.322 19.8331C22.1928 18.6628 22.7463 17.2424 22.8552 15.6992H20.053C20.0122 16.903 19.841 18.0475 19.5621 19.0829ZM22.8552 14.5742C22.7463 13.0311 22.1928 11.6107 21.322 10.4403C20.794 10.7301 20.2028 10.9821 19.5621 11.1905C19.841 12.2259 20.0122 13.3705 20.053 14.5742H22.8552ZM18.6783 8.90579C18.8782 9.28066 19.0596 9.68649 19.2204 10.1186C19.7091 9.95921 20.1604 9.77371 20.5671 9.56689C19.8401 8.84026 18.9718 8.25506 18.0068 7.85611C18.2528 8.17568 18.4772 8.52881 18.6783 8.90579ZM18.1301 10.4158C17.9955 10.065 17.8467 9.7371 17.6857 9.4352C17.0648 8.27109 16.3156 7.57816 15.5625 7.34784V10.7386C16.4732 10.7055 17.3368 10.5927 18.1301 10.4158Z" fill="black"/>
</svg>
