<svg width="30" height="30" viewBox="0 0 30 30" fill="none" xmlns="http://www.w3.org/2000/svg">
<rect x="1" y="1" width="28" height="28" rx="14" fill="#E0E0E0"/>
<rect x="1" y="1" width="28" height="28" rx="14" stroke="black" stroke-width="2"/>
<path d="M17.8184 12C17.8184 12 18.7585 13.272 18.8184 15C18.8809 16.804 17.8184 18 17.8184 18" stroke="black" stroke-width="1.36364" stroke-linecap="round"/>
<path d="M20.1816 10C20.1816 10 22.0569 12.1201 22.1763 15C22.301 18.0066 20.1816 20 20.1816 20" stroke="black" stroke-width="1.36364" stroke-linecap="round"/>
<path d="M15.4405 9.0658C15.6715 9.17682 15.8184 9.4104 15.8184 9.66667V20.3333C15.8184 20.5896 15.6715 20.8232 15.4405 20.9342C15.2095 21.0452 14.9353 21.014 14.7352 20.8539C14.7352 20.8539 13.0938 18.786 11.5845 18.3333C10.4251 17.9856 8.48503 18.3333 8.48503 18.3333C8.11684 18.3333 7.81836 18.0349 7.81836 17.6667V12.3333C7.81836 11.9651 8.11684 11.6667 8.48503 11.6667C8.48503 11.6667 10.4251 12.0144 11.5845 11.6667C13.0938 11.214 14.7352 9.14609 14.7352 9.14609C14.9353 8.986 15.2095 8.95479 15.4405 9.0658Z" fill="black"/>
</svg>
