<svg width="30" height="30" viewBox="0 0 30 30" fill="none" xmlns="http://www.w3.org/2000/svg">
<rect x="1.5" y="1.5" width="27" height="27" rx="13.5" stroke="black" stroke-width="3"/>
<path d="M10.0195 16.6885C8.40008 19.2451 10.2238 22.6884 13.335 22.6885C14.0999 22.6885 14.8111 22.4642 15.4141 22.084L16.6719 23.3428C13.0062 26.0317 7.66816 23.4611 7.66797 18.7666C7.66797 17.5196 8.07393 16.3645 8.76172 15.4316L10.0195 16.6885ZM12.8252 6.73828C13.1379 6.45776 13.5947 6.41254 13.96 6.62402L13.9629 6.62598C13.9654 6.62743 13.9697 6.62994 13.9746 6.63281C13.9845 6.63855 13.9996 6.64717 14.0186 6.6582C14.0567 6.68038 14.1126 6.71268 14.1836 6.75391C14.3263 6.83684 14.5307 6.95549 14.7754 7.09766C15.2652 7.38222 15.9189 7.76187 16.5723 8.1416C17.2257 8.52137 17.8794 8.90199 18.3701 9.1875C18.6155 9.33023 18.8204 9.44956 18.9639 9.5332C19.0352 9.57479 19.0914 9.60737 19.1299 9.62988C19.1492 9.64117 19.164 9.65044 19.1738 9.65625C19.1787 9.65915 19.1824 9.66083 19.1846 9.66211L19.1855 9.66309H19.1865C19.7025 9.98503 19.8596 10.835 19.3779 11.3828L17.1875 13.877L16.9238 14.1777L17.3232 14.1553L21.3018 13.9346L21.3027 13.9336C21.8947 13.8985 22.377 14.3951 22.3291 14.9795L21.8457 20.8789V20.8799C21.8181 21.2193 21.6798 21.4498 21.502 21.5928C21.3216 21.7377 21.0887 21.8019 20.8584 21.7842C20.6279 21.7663 20.4074 21.6674 20.2529 21.498C20.1007 21.3312 20.0029 21.0852 20.0303 20.7529V20.751C20.0304 20.7496 20.031 20.7477 20.0312 20.7451C20.0317 20.7394 20.0323 20.7307 20.0332 20.7197C20.035 20.6976 20.0376 20.6647 20.041 20.623C20.0479 20.5398 20.0576 20.42 20.0693 20.2734C20.0929 19.9799 20.1239 19.5788 20.1553 19.1494C20.2178 18.2936 20.2812 17.3153 20.2812 16.8545C20.2812 16.5682 20.1487 16.3637 19.9492 16.2461C19.76 16.1346 19.5246 16.1087 19.3125 16.1318C19.1004 16.1549 18.885 16.2298 18.7324 16.3525C18.5762 16.4783 18.4642 16.6784 18.5518 16.9131C18.772 17.5026 18.998 17.8855 18.998 18.7705C18.9979 20.2089 18.4584 21.522 17.5732 22.5205L16.333 21.2803C18.4392 18.7767 16.6903 14.8516 13.3311 14.8516C12.374 14.8516 11.4966 15.1962 10.8184 15.7646L9.58301 14.5283C10.3641 13.8369 11.3372 13.3547 12.417 13.1787C13.0386 13.0774 14.081 12.6027 14.8477 11.9824C15.2315 11.6718 15.5626 11.3113 15.7324 10.9268C15.9063 10.5328 15.9103 10.11 15.6318 9.71191C15.4161 9.40349 15.1878 9.1696 14.9092 9.0127C14.6297 8.85534 14.3125 8.78223 13.9316 8.77441C13.634 8.76844 13.3351 8.88661 13.0645 9.04785C12.7917 9.21041 12.5322 9.42627 12.3096 9.63867C12.0862 9.85174 11.896 10.0651 11.7617 10.2246C11.6946 10.3043 11.6413 10.371 11.6045 10.418C11.5861 10.4414 11.5713 10.4598 11.5615 10.4727L11.5605 10.4746C11.3161 10.6894 11.0609 10.754 10.8301 10.7266C10.5928 10.6982 10.3685 10.5716 10.2021 10.3857C10.0357 10.1996 9.93493 9.962 9.93359 9.72266C9.93245 9.51685 10.0041 9.29929 10.1885 9.09961L10.2744 9.01562L12.8242 6.73926L12.8252 6.73828ZM20.0625 5.56641C21.0235 5.56641 21.8037 6.34631 21.8037 7.30762C21.8037 8.26891 21.0235 9.04883 20.0625 9.04883C19.1015 9.04877 18.3213 8.26888 18.3213 7.30762C18.3213 6.34635 19.1015 5.56647 20.0625 5.56641Z" fill="black" stroke="black" stroke-width="0.335728"/>
</svg>
