<svg width="30" height="30" viewBox="0 0 30 30" fill="none" xmlns="http://www.w3.org/2000/svg">
<rect x="1" y="1" width="28" height="28" rx="14" stroke="black" stroke-width="2"/>
<path d="M8.73 19.668C8.29133 19.668 7.89 19.584 7.526 19.416C7.162 19.248 6.87267 19.0147 6.658 18.716C6.44333 18.408 6.336 18.044 6.336 17.624C6.336 17.0547 6.532 16.602 6.924 16.266C7.32533 15.93 7.87133 15.678 8.562 15.51C9.25267 15.342 10.046 15.2253 10.942 15.16C10.942 14.6653 10.8627 14.3153 10.704 14.11C10.5453 13.9047 10.2373 13.802 9.78 13.802C9.49067 13.802 9.234 13.872 9.01 14.012C8.79533 14.1427 8.65067 14.348 8.576 14.628L6.784 13.984C7.01733 13.5173 7.40467 13.13 7.946 12.822C8.49667 12.514 9.16867 12.36 9.962 12.36C10.9513 12.36 11.712 12.5793 12.244 13.018C12.776 13.4567 13.042 14.2033 13.042 15.258V16.784C13.042 17.0827 13.0513 17.4047 13.07 17.75C13.0887 18.0953 13.1167 18.422 13.154 18.73C13.1913 19.038 13.2333 19.2947 13.28 19.5H11.306L11.054 18.66C10.7927 19.024 10.4613 19.2853 10.06 19.444C9.668 19.5933 9.22467 19.668 8.73 19.668ZM9.514 18.212C9.934 18.212 10.284 18.1 10.564 17.876C10.844 17.652 10.984 17.2227 10.984 16.588V16.42C10.2467 16.4853 9.654 16.588 9.206 16.728C8.758 16.8587 8.534 17.106 8.534 17.47C8.534 17.694 8.62733 17.876 8.814 18.016C9.00067 18.1467 9.234 18.212 9.514 18.212ZM13.8083 19.5L17.3503 10.148H19.7863L23.3283 19.5H20.9203L20.3603 17.834H16.7763L16.2163 19.5H13.8083ZM17.3783 16.042H19.7583L18.5543 12.486L17.3783 16.042Z" fill="black"/>
</svg>
