<svg width="35" height="35" viewBox="0 0 35 35" fill="none" xmlns="http://www.w3.org/2000/svg">
<rect x="1.5" y="1.5" width="32" height="32" rx="16" stroke="black" stroke-width="3"/>
<path d="M20.9879 23.58L18.9702 21.5623C18.5107 21.7262 18.0158 21.8154 17.5 21.8154C15.0838 21.8154 13.125 19.8567 13.125 17.4404C13.125 16.9246 13.2143 16.4297 13.3782 15.9702L10.8014 13.3935C8.6734 15.2892 7.5 17.4404 7.5 17.4404C7.5 17.4404 11.25 24.3154 17.5 24.3154C18.7692 24.3154 19.9354 24.0319 20.9879 23.58Z" fill="black"/>
<path d="M14.0121 11.3008C15.0646 10.849 16.2308 10.5654 17.5 10.5654C23.75 10.5654 27.5 17.4404 27.5 17.4404C27.5 17.4404 26.3266 19.5916 24.1986 21.4874L21.6218 18.9106C21.7857 18.4511 21.875 17.9562 21.875 17.4404C21.875 15.0242 19.9162 13.0654 17.5 13.0654C16.9842 13.0654 16.4893 13.1547 16.0298 13.3186L14.0121 11.3008Z" fill="black"/>
<path d="M14.4061 16.9981C14.3856 17.1426 14.375 17.2903 14.375 17.4404C14.375 19.1663 15.7741 20.5654 17.5 20.5654C17.6501 20.5654 17.7978 20.5548 17.9423 20.5344L14.4061 16.9981Z" fill="black"/>
<path d="M20.5939 17.8827L17.0577 14.3465C17.2022 14.326 17.3499 14.3154 17.5 14.3154C19.2259 14.3154 20.625 15.7145 20.625 17.4404C20.625 17.5906 20.6144 17.7382 20.5939 17.8827Z" fill="black"/>
<path d="M10 10L25 24.9999" stroke="black" stroke-width="2" stroke-linecap="round"/>
</svg>
