<svg width="368" height="245" viewBox="0 0 368 245" fill="none" xmlns="http://www.w3.org/2000/svg">
<rect x="121.932" y="2.93182" width="123.136" height="123.136" rx="61.5682" fill="#E0E0E0"/>
<rect x="121.932" y="2.93182" width="123.136" height="123.136" rx="61.5682" stroke="#767676" stroke-width="5.86364"/>
<path fill-rule="evenodd" clip-rule="evenodd" d="M183.5 42.9998C188.25 42.9998 192.1 39.1495 192.1 34.3998C192.1 29.6502 188.25 25.7998 183.5 25.7998C178.75 25.7998 174.9 29.6502 174.9 34.3998C174.9 39.1495 178.75 42.9998 183.5 42.9998ZM149.1 51.5998C149.1 49.225 151.025 47.2998 153.4 47.2998H172.75H181.35H185.65H189.95H194.25H213.6C215.975 47.2998 217.9 49.225 217.9 51.5998C217.9 53.9746 215.975 55.8998 213.6 55.8998H206.075C199.544 55.8998 194.25 61.194 194.25 67.7248V98.8998C194.25 101.275 192.325 103.2 189.95 103.2C187.575 103.2 185.65 101.275 185.65 98.8998V79.5498C185.65 78.3624 184.687 77.3998 183.5 77.3998C182.313 77.3998 181.35 78.3624 181.35 79.5498V98.8998C181.35 101.275 179.425 103.2 177.05 103.2C174.675 103.2 172.75 101.275 172.75 98.8998V77.3998V67.7248C172.75 61.194 167.456 55.8998 160.925 55.8998H153.4C151.025 55.8998 149.1 53.9746 149.1 51.5998Z" fill="#1E1E1E"/>
<path d="M38.9424 185.702C38.9355 185.698 38.926 185.693 38.9141 185.686C38.8812 185.666 38.8319 185.637 38.7676 185.6C38.6391 185.524 38.451 185.415 38.2119 185.275C37.7336 184.997 37.0513 184.599 36.2334 184.123C34.5977 183.171 32.419 181.905 30.2412 180.64C28.0631 179.374 25.8857 178.108 24.2529 177.159C23.4368 176.685 22.7564 176.29 22.2803 176.014C22.0424 175.875 21.8551 175.766 21.7275 175.692C21.6639 175.655 21.615 175.627 21.582 175.607C21.5656 175.598 21.5523 175.591 21.5439 175.586C21.5402 175.584 21.5372 175.582 21.5352 175.581L21.5322 175.579L21.3008 175.457C20.1261 174.896 18.7263 175.083 17.749 175.961L17.748 175.963L9.24805 183.552L9.09863 183.691C8.38315 184.395 8.10726 185.174 8.11133 185.908C8.11579 186.706 8.45121 187.497 9.00586 188.117C9.56065 188.738 10.3095 189.161 11.1016 189.255C11.8677 189.346 12.7147 189.134 13.5264 188.426C13.5303 188.421 13.5346 188.415 13.5391 188.409C13.5716 188.366 13.6194 188.305 13.6807 188.227C13.8033 188.07 13.9812 187.847 14.2051 187.581C14.6526 187.049 15.2878 186.338 16.0322 185.628C16.7745 184.92 17.6394 184.199 18.5488 183.657C19.4513 183.12 20.4479 182.728 21.4404 182.748L21.9072 182.769C22.9725 182.84 23.8831 183.082 24.6982 183.541C25.6268 184.064 26.3883 184.843 27.1074 185.871L27.2705 186.121C28.0318 187.375 27.9843 188.691 27.4404 189.923C26.8742 191.205 25.771 192.405 24.4912 193.44C21.9359 195.508 18.4628 197.089 16.3906 197.427L15.6826 197.557C12.3642 198.228 9.36764 199.767 6.93555 201.92L11.0635 206.049C13.3243 204.155 16.2476 203.004 19.4375 203.004C30.6351 203.004 36.4741 216.097 29.4531 224.442L33.5811 228.571C36.5318 225.243 38.3281 220.862 38.3281 216.066C38.3281 213.116 37.5731 211.842 36.8389 209.877L36.792 209.732C36.5938 209.013 36.9521 208.403 37.4404 208.01C37.9491 207.6 38.6667 207.348 39.374 207.271C40.0812 207.193 40.8662 207.282 41.4971 207.654C42.162 208.046 42.6055 208.727 42.6055 209.682C42.6055 211.218 42.394 214.478 42.1855 217.33C42.0809 218.761 41.9759 220.098 41.8975 221.077C41.8582 221.566 41.8256 221.966 41.8027 222.244C41.7913 222.383 41.7825 222.491 41.7764 222.564C41.7733 222.601 41.7711 222.629 41.7695 222.648C41.7687 222.658 41.768 222.665 41.7676 222.67C41.7674 222.672 41.7677 222.675 41.7676 222.676H41.7666L41.7676 222.677C41.6763 223.784 42.0034 224.603 42.5107 225.159C43.0257 225.724 43.758 226.053 44.5264 226.112C45.2945 226.172 46.0713 225.96 46.6729 225.477C47.2661 225 47.7256 224.23 47.8174 223.098L49.4307 203.431L49.4404 203.249C49.4896 201.381 47.9206 199.833 46.0088 199.946H46.0068L32.7441 200.684L31.4131 200.758L32.292 199.756L39.5928 191.441L39.7373 191.268C41.1649 189.44 40.6207 186.748 38.9541 185.709L38.9395 185.699C38.9407 185.7 38.9414 185.701 38.9424 185.702ZM38.9424 185.702C38.9449 185.704 38.9473 185.705 38.9492 185.706M38.9424 185.702C38.9436 185.703 38.9446 185.704 38.9453 185.704C38.9462 185.705 38.9481 185.705 38.9492 185.706M38.9492 185.706L38.9512 185.707L38.9531 185.709L38.9492 185.706ZM8.39453 209.126C2.99697 217.648 9.07979 229.129 19.4502 229.129C22.0004 229.129 24.3785 228.391 26.3887 227.123L30.5742 231.311C18.3551 240.274 0.55957 231.703 0.55957 216.054C0.5596 211.897 1.9129 208.046 4.20605 204.937L8.39453 209.126ZM41.875 172.054C45.0784 172.054 47.6787 174.654 47.6787 177.858C47.6785 181.063 45.0783 183.662 41.875 183.662C38.6719 183.662 36.0725 181.062 36.0723 177.858C36.0723 174.654 38.6718 172.054 41.875 172.054Z" fill="black" stroke="black" stroke-width="1.11909"/>
<path d="M83.4342 226L84.6342 217.533H76.1009L77.4342 208.267H85.9675L87.3009 199.267H78.7675L80.1009 189.933H88.6342L89.9009 181.467H99.2342L97.9675 189.933H107.101L108.368 181.467H117.768L116.501 189.933H125.101L123.701 199.2H115.168L113.901 208.2H122.434L121.101 217.533H112.501L111.301 226H101.901L103.101 217.533H94.0342L92.8342 226H83.4342ZM95.3675 208.2H104.501L105.768 199.267H96.6342L95.3675 208.2Z" fill="black"/>
<path d="M201.445 178.883C201.98 179.341 202.15 180.097 201.863 180.74C196.997 191.662 186.785 206.749 179.309 214.613C177.29 216.737 175.125 218.038 173.463 218.808C172.809 219.112 172.23 219.334 171.763 219.494C171.707 220.217 171.572 221.206 171.253 222.256C170.616 224.354 169.136 226.965 165.826 227.793C162.418 228.646 158.62 228.648 156.04 228.217C155.387 228.108 154.777 227.966 154.252 227.788C153.76 227.621 153.203 227.378 152.771 226.999C152.546 226.802 152.28 226.503 152.125 226.084C151.956 225.626 151.96 225.131 152.136 224.674C152.438 223.892 153.142 223.465 153.603 223.234C154.853 222.608 155.589 221.793 156.359 220.607C156.659 220.146 156.944 219.659 157.271 219.103C157.388 218.902 157.511 218.693 157.641 218.473C158.123 217.661 158.679 216.755 159.379 215.774C161.057 213.422 163.196 212.83 164.928 212.921C165.33 212.942 165.702 212.999 166.036 213.072C166.233 212.525 166.486 211.865 166.792 211.138C167.622 209.168 168.884 206.622 170.567 204.553C177.482 196.05 190.21 184.796 199.549 178.755C200.139 178.372 200.911 178.425 201.445 178.883Z" fill="black"/>
<path d="M226.501 203.5C226.501 187.484 239.485 174.5 255.501 174.5C271.517 174.5 284.501 187.484 284.501 203.5C284.501 219.516 271.517 232.5 255.501 232.5C239.485 232.5 226.501 219.516 226.501 203.5ZM253.688 178.403C251.262 179.145 248.848 181.377 246.847 185.128C246.328 186.101 245.849 187.158 245.415 188.288C247.971 188.858 250.754 189.222 253.688 189.328V178.403ZM241.902 187.33C242.42 185.938 243.004 184.63 243.649 183.423C244.296 182.208 245.02 181.07 245.812 180.04C242.703 181.326 239.905 183.211 237.562 185.553C238.873 186.219 240.327 186.817 241.902 187.33ZM239.219 201.687C239.351 197.809 239.902 194.121 240.801 190.785C238.736 190.113 236.831 189.301 235.13 188.367C232.324 192.138 230.541 196.715 230.19 201.687H239.219ZM244.295 191.751C243.488 194.751 242.976 198.11 242.846 201.687H253.688V192.955C250.39 192.843 247.225 192.428 244.295 191.751ZM257.313 192.955V201.687H268.155C268.025 198.11 267.513 194.751 266.707 191.751C263.776 192.428 260.611 192.843 257.313 192.955ZM242.846 205.312C242.976 208.89 243.488 212.249 244.295 215.249C247.225 214.572 250.39 214.157 253.688 214.045V205.312H242.846ZM257.313 205.312V214.045C260.611 214.157 263.776 214.572 266.707 215.249C267.513 212.249 268.025 208.89 268.155 205.312H257.313ZM245.415 218.712C245.849 219.842 246.328 220.899 246.847 221.871C248.848 225.623 251.262 227.855 253.688 228.597V217.672C250.754 217.778 247.971 218.142 245.415 218.712ZM245.812 226.96C245.02 225.93 244.296 224.792 243.649 223.577C243.004 222.369 242.42 221.062 241.902 219.669C240.327 220.183 238.873 220.781 237.562 221.447C239.905 223.789 242.703 225.674 245.812 226.96ZM240.801 216.215C239.902 212.879 239.351 209.191 239.219 205.312H230.19C230.541 210.285 232.324 214.862 235.13 218.633C236.831 217.699 238.736 216.887 240.801 216.215ZM265.189 226.96C268.299 225.674 271.097 223.789 273.439 221.447C272.129 220.781 270.675 220.183 269.1 219.669C268.582 221.062 267.997 222.369 267.353 223.577C266.705 224.792 265.982 225.93 265.189 226.96ZM257.313 217.672V228.597C259.74 227.855 262.154 225.623 264.155 221.871C264.673 220.899 265.153 219.842 265.587 218.712C263.03 218.142 260.248 217.778 257.313 217.672ZM270.201 216.215C272.265 216.887 274.17 217.699 275.872 218.633C278.678 214.862 280.461 210.285 280.812 205.312H271.783C271.651 209.191 271.1 212.879 270.201 216.215ZM280.812 201.687C280.461 196.715 278.678 192.138 275.872 188.367C274.17 189.301 272.265 190.113 270.201 190.785C271.1 194.121 271.651 197.809 271.783 201.687H280.812ZM267.353 183.423C267.997 184.63 268.582 185.938 269.1 187.33C270.675 186.817 272.129 186.219 273.439 185.553C271.097 183.211 268.299 181.326 265.189 180.04C265.982 181.07 266.705 182.208 267.353 183.423ZM265.587 188.288C265.153 187.158 264.673 186.101 264.155 185.128C262.154 181.377 259.74 179.145 257.313 178.403V189.328C260.248 189.222 263.03 188.858 265.587 188.288Z" fill="black"/>
<path d="M318.101 219.06C316.639 219.06 315.301 218.78 314.088 218.22C312.874 217.66 311.91 216.882 311.194 215.887C310.479 214.86 310.121 213.647 310.121 212.247C310.121 210.349 310.774 208.84 312.081 207.72C313.419 206.6 315.239 205.76 317.541 205.2C319.843 204.64 322.488 204.251 325.474 204.033C325.474 202.384 325.21 201.218 324.681 200.533C324.152 199.849 323.125 199.507 321.601 199.507C320.636 199.507 319.781 199.74 319.034 200.207C318.319 200.642 317.836 201.327 317.588 202.26L311.614 200.113C312.392 198.558 313.683 197.267 315.488 196.24C317.323 195.213 319.563 194.7 322.208 194.7C325.505 194.7 328.041 195.431 329.814 196.893C331.588 198.356 332.474 200.844 332.474 204.36V209.447C332.474 210.442 332.505 211.516 332.568 212.667C332.63 213.818 332.723 214.907 332.848 215.933C332.972 216.96 333.112 217.816 333.268 218.5H326.688L325.848 215.7C324.976 216.913 323.872 217.784 322.534 218.313C321.228 218.811 319.75 219.06 318.101 219.06ZM320.714 214.207C322.114 214.207 323.281 213.833 324.214 213.087C325.148 212.34 325.614 210.909 325.614 208.793V208.233C323.156 208.451 321.181 208.793 319.688 209.26C318.194 209.696 317.448 210.52 317.448 211.733C317.448 212.48 317.759 213.087 318.381 213.553C319.003 213.989 319.781 214.207 320.714 214.207ZM335.028 218.5L346.835 187.327H354.955L366.762 218.5H358.735L356.868 212.947H344.922L343.055 218.5H335.028ZM346.928 206.973H354.862L350.848 195.12L346.928 206.973Z" fill="black"/>
</svg>
