<svg width="375" height="85" viewBox="0 0 375 85" fill="none" xmlns="http://www.w3.org/2000/svg">
<path d="M8.55371 48.021C3.05302 56.7052 9.2525 68.4048 19.8203 68.4048C22.4188 68.4047 24.8414 67.6527 26.8896 66.3608L31.1562 70.6284C18.7047 79.7624 0.570327 71.0283 0.570312 55.0815C0.570312 50.8452 1.95028 46.9223 4.28711 43.7534L8.55371 48.021ZM18.0869 14.2261C19.1491 13.2724 20.7014 13.1188 21.9424 13.8374L21.9443 13.8384C21.9465 13.8396 21.9498 13.8418 21.9541 13.8442C21.9626 13.8492 21.9755 13.856 21.9922 13.8657C22.0258 13.8852 22.0756 13.9149 22.1406 13.9526C22.2706 14.0281 22.4616 14.1389 22.7041 14.2798C23.1893 14.5617 23.8822 14.9646 24.7139 15.4478C26.3777 16.4144 28.5969 17.7037 30.8164 18.9937C33.0358 20.2835 35.256 21.5737 36.9229 22.5435C37.7561 23.0283 38.4511 23.4332 38.9385 23.7173C39.1822 23.8594 39.374 23.9717 39.5049 24.0483C39.5704 24.0867 39.6209 24.1155 39.6543 24.1353C39.6709 24.145 39.6822 24.1524 39.6895 24.1567C39.6904 24.1573 39.6918 24.1573 39.6924 24.1577L39.6953 24.1597C41.3936 25.2187 41.9478 27.9614 40.4932 29.8237L40.3457 30.0015L32.9062 38.4741L32.0098 39.4946L33.3662 39.4194L46.8818 38.6675H46.8838C48.8947 38.5479 50.5328 40.2331 50.3701 42.2183L48.7275 62.2593C48.634 63.4133 48.1651 64.1974 47.5605 64.6831C46.9475 65.1756 46.1559 65.3923 45.373 65.3315C44.5901 65.2707 43.844 64.935 43.3193 64.3599C42.8347 63.8285 42.5107 63.0623 42.5488 62.0386L42.5615 61.8306V61.8296C42.5616 61.8283 42.5623 61.8262 42.5625 61.8237C42.5629 61.8189 42.5627 61.8117 42.5635 61.8022C42.5651 61.7829 42.5682 61.7538 42.5713 61.7163C42.5775 61.6413 42.586 61.5307 42.5977 61.3892C42.621 61.1062 42.6544 60.6983 42.6943 60.1997C42.7743 59.2025 42.8817 57.8407 42.9883 56.3823C43.2007 53.4757 43.415 50.1536 43.415 48.5884C43.415 47.6157 42.9637 46.9215 42.2861 46.522C41.6433 46.143 40.8436 46.0528 40.123 46.1313C39.4023 46.2099 38.6717 46.4671 38.1533 46.8843C37.6224 47.3117 37.242 47.99 37.54 48.7876C38.2882 50.7901 39.0576 52.088 39.0576 55.0942C39.0576 59.9809 37.2267 64.4454 34.2197 67.8374L30.0137 63.6294C37.1678 55.1254 31.2179 41.7839 19.8076 41.7837C16.5569 41.7837 13.5783 42.9567 11.2744 44.8872L7.06641 40.6792C9.71988 38.3299 13.0334 36.698 16.7021 36.1001C18.8137 35.7559 22.3531 34.1454 24.957 32.0386C26.2613 30.9833 27.3858 29.76 27.9629 28.4536C28.554 27.1152 28.5691 25.6773 27.623 24.3247C26.8903 23.2772 26.1142 22.4836 25.168 21.9507C24.2186 21.416 23.1424 21.1687 21.8486 21.1421C20.8372 21.1213 19.8211 21.5209 18.9014 22.0688C17.9745 22.6211 17.0934 23.3559 16.3369 24.0776C15.5784 24.8013 14.9316 25.525 14.4756 26.0669C14.2473 26.3382 14.0654 26.5654 13.9404 26.7251C13.8781 26.8048 13.83 26.868 13.7969 26.9116C13.7926 26.9173 13.788 26.9222 13.7842 26.9272C12.9568 27.6499 12.0934 27.8649 11.3125 27.772C10.5056 27.6759 9.743 27.246 9.17773 26.6138C8.61251 25.9815 8.27025 25.1757 8.26562 24.3628C8.2612 23.5642 8.58068 22.7134 9.42285 21.9604L9.42383 21.9614L18.085 14.228L18.0869 14.2261ZM39.6904 24.1567C39.6893 24.156 39.6876 24.1555 39.6865 24.1548C39.6855 24.1541 39.6837 24.1523 39.6816 24.1509L39.6904 24.1567ZM42.6719 10.2446C45.9362 10.2447 48.585 12.8944 48.585 16.1597C48.5847 19.4248 45.936 22.0737 42.6719 22.0737C39.4077 22.0737 36.759 19.4248 36.7588 16.1597C36.7588 12.8944 39.4076 10.2446 42.6719 10.2446Z" fill="black" stroke="black" stroke-width="1.14038"/>
<path d="M85.0544 64.2891L86.2772 55.6614H77.5816L78.9403 46.2185H87.6359L88.9946 37.0473H80.299L81.6577 27.5364H90.3533L91.6441 18.9087H101.155L99.8642 27.5364H109.171L110.462 18.9087H120.041L118.75 27.5364H127.514L126.087 36.9793H117.391L116.101 46.1505H124.796L123.437 55.6614H114.674L113.451 64.2891H103.872L105.095 55.6614H95.856L94.6332 64.2891H85.0544ZM97.2147 46.1505H106.522L107.813 37.0473H98.5055L97.2147 46.1505Z" fill="black"/>
<path d="M205.369 17.2205C205.914 17.6872 206.087 18.4566 205.795 19.1117C200.833 30.2339 190.42 45.5984 182.797 53.6068C180.738 55.7697 178.53 57.0939 176.836 57.8787C176.169 58.1875 175.579 58.4143 175.103 58.577C175.045 59.3133 174.908 60.3208 174.583 61.3896C173.933 63.526 172.424 66.1848 169.049 67.0285C165.573 67.8974 161.701 67.8986 159.07 67.46C158.404 67.349 157.782 67.2043 157.247 67.0231C156.745 66.8534 156.177 66.6061 155.736 66.22C155.507 66.0192 155.236 65.7151 155.078 65.2877C154.905 64.8215 154.909 64.317 155.089 63.8516C155.397 63.0559 156.115 62.6205 156.585 62.3855C157.859 61.7484 158.61 60.9184 159.395 59.7101C159.701 59.2404 159.992 58.745 160.325 58.1783C160.445 57.9746 160.57 57.7616 160.703 57.5373C161.194 56.7104 161.761 55.7881 162.474 54.7888C164.185 52.3935 166.367 51.7907 168.133 51.8837C168.542 51.9052 168.922 51.9629 169.262 52.0375C169.464 51.4803 169.722 50.8074 170.034 50.0676C170.88 48.0618 172.167 45.4687 173.882 43.3615C180.934 34.7026 193.913 23.2425 203.435 17.09C204.037 16.7007 204.824 16.7538 205.369 17.2205Z" fill="black"/>
<path d="M230.936 42.2894C230.936 25.9685 244.166 12.7378 260.487 12.7378C276.808 12.7378 290.039 25.9685 290.039 42.2894C290.039 58.6102 276.808 71.8409 260.487 71.8409C244.166 71.8409 230.936 58.6102 230.936 42.2894ZM258.64 16.7145C256.167 17.4708 253.707 19.746 251.669 23.5684C251.14 24.5597 250.651 25.6365 250.209 26.7881C252.814 27.3692 255.65 27.7394 258.64 27.8481V16.7145ZM246.629 25.8123C247.157 24.3935 247.753 23.061 248.409 21.8301C249.07 20.5922 249.807 19.4327 250.614 18.3834C247.446 19.6934 244.594 21.6149 242.207 24.0008C243.543 24.6799 245.025 25.289 246.629 25.8123ZM243.896 40.4424C244.03 36.4898 244.591 32.7317 245.508 29.3321C243.404 28.6477 241.462 27.8202 239.729 26.8688C236.87 30.7115 235.052 35.3754 234.694 40.4424H243.896ZM249.068 30.3167C248.246 33.3738 247.724 36.7964 247.592 40.4424H258.64V31.5442C255.279 31.4301 252.054 31.0065 249.068 30.3167ZM262.334 31.5442V40.4424H273.382C273.25 36.7964 272.728 33.3738 271.906 30.3167C268.92 31.0065 265.695 31.4301 262.334 31.5442ZM247.592 44.1363C247.724 47.7823 248.246 51.2049 249.068 54.262C252.054 53.5722 255.279 53.1485 258.64 53.0345V44.1363H247.592ZM262.334 44.1363V53.0345C265.695 53.1485 268.92 53.5722 271.906 54.262C272.728 51.2049 273.25 47.7823 273.382 44.1363H262.334ZM250.209 57.7905C250.651 58.9422 251.14 60.019 251.669 61.0103C253.707 64.8326 256.167 67.1079 258.64 67.8641V56.7306C255.65 56.8393 252.814 57.2095 250.209 57.7905ZM250.614 66.1952C249.807 65.1459 249.07 63.9864 248.409 62.7486C247.753 61.5177 247.157 60.1852 246.629 58.7664C245.025 59.2897 243.543 59.8988 242.207 60.5779C244.595 62.9638 247.446 64.8853 250.614 66.1952ZM245.508 55.2466C244.591 51.8469 244.03 48.0889 243.896 44.1363H234.694C235.052 49.2033 236.87 53.8672 239.729 57.7099C241.462 56.7584 243.404 55.931 245.508 55.2466ZM270.36 66.1952C273.528 64.8853 276.38 62.9638 278.767 60.5779C277.431 59.8988 275.95 59.2897 274.345 58.7664C273.817 60.1852 273.221 61.5177 272.565 62.7486C271.905 63.9864 271.168 65.1459 270.36 66.1952ZM262.334 56.7306V67.8641C264.807 67.1079 267.267 64.8326 269.305 61.0103C269.834 60.019 270.323 58.9422 270.765 57.7905C268.16 57.2095 265.324 56.8393 262.334 56.7306ZM275.467 55.2466C277.57 55.931 279.512 56.7584 281.245 57.7099C284.105 53.8672 285.922 49.2033 286.28 44.1363H277.079C276.945 48.0889 276.383 51.8469 275.467 55.2466ZM286.28 40.4424C285.922 35.3754 284.105 30.7115 281.245 26.8688C279.512 27.8202 277.57 28.6477 275.467 29.3321C276.383 32.7317 276.945 36.4898 277.079 40.4424H286.28ZM272.565 21.8301C273.221 23.061 273.817 24.3935 274.345 25.8123C275.95 25.289 277.431 24.6799 278.767 24.0008C276.38 21.6149 273.528 19.6934 270.36 18.3834C271.168 19.4327 271.905 20.5922 272.565 21.8301ZM270.765 26.7881C270.323 25.6365 269.834 24.5597 269.305 23.5684C267.267 19.746 264.807 17.4708 262.334 16.7145V27.8481C265.324 27.7394 268.16 27.3692 270.765 26.7881Z" fill="black"/>
<path d="M324.312 58.3597C322.822 58.3597 321.459 58.0744 320.222 57.5037C318.986 56.9331 318.003 56.1405 317.274 55.126C316.545 54.0798 316.18 52.8434 316.18 51.4168C316.18 49.4829 316.846 47.9453 318.178 46.804C319.541 45.6627 321.395 44.8068 323.741 44.2361C326.087 43.6655 328.782 43.2692 331.826 43.0472C331.826 41.367 331.556 40.1781 331.017 39.4807C330.478 38.7832 329.432 38.4345 327.879 38.4345C326.896 38.4345 326.024 38.6723 325.263 39.1478C324.534 39.5916 324.043 40.2891 323.789 41.2402L317.702 39.0527C318.495 37.4675 319.81 36.1519 321.649 35.1057C323.52 34.0595 325.802 33.5364 328.497 33.5364C331.857 33.5364 334.441 34.2814 336.248 35.7714C338.055 37.2615 338.959 39.7977 338.959 43.3801V48.5635C338.959 49.578 338.991 50.6718 339.054 51.8448C339.117 53.0178 339.212 54.1274 339.339 55.1736C339.466 56.2198 339.609 57.0916 339.767 57.7891H333.062L332.206 54.9358C331.318 56.1722 330.193 57.0599 328.83 57.5988C327.498 58.1061 325.992 58.3597 324.312 58.3597ZM326.975 53.4141C328.402 53.4141 329.591 53.0336 330.542 52.2728C331.493 51.5119 331.968 50.0536 331.968 47.8978V47.3271C329.464 47.549 327.451 47.8978 325.929 48.3733C324.407 48.8172 323.646 49.6573 323.646 50.8937C323.646 51.6546 323.963 52.2728 324.597 52.7483C325.232 53.1922 326.024 53.4141 326.975 53.4141ZM341.562 57.7891L353.593 26.0228H361.867L373.899 57.7891H365.719L363.817 52.1301H351.643L349.741 57.7891H341.562ZM353.688 46.0432H361.772L357.683 33.9644L353.688 46.0432Z" fill="black"/>
</svg>
