<svg width="280" height="125" viewBox="0 0 280 125" fill="none" xmlns="http://www.w3.org/2000/svg">
<path d="M31.6953 41.6112V21.1963H115.688V41.6112M115.688 75.7318V102.856H31.6953V75.7318M21.1962 57.9431H126.187" stroke="black" stroke-width="11.6398" stroke-linecap="round" stroke-linejoin="round"/>
<path d="M217.408 21.6088C218.982 22.3649 219.982 23.9559 219.982 25.7013V98.351C219.982 100.096 218.982 101.687 217.408 102.443C215.835 103.2 213.968 102.987 212.605 101.897C212.605 101.897 201.425 87.8125 191.145 84.7291C183.248 82.3606 170.034 84.7291 170.034 84.7291C167.526 84.7291 165.493 82.6963 165.493 80.1885V43.8637C165.493 41.356 167.526 39.3231 170.034 39.3231C170.034 39.3231 183.248 41.6917 191.145 39.3231C201.425 36.2397 212.605 22.1557 212.605 22.1557C213.968 21.0653 215.835 20.8527 217.408 21.6088Z" fill="black"/>
<path d="M233.57 41.5938C233.57 41.5938 239.973 50.2574 240.381 62.0265C240.807 74.3131 233.57 82.4592 233.57 82.4592" stroke="black" stroke-width="9.28776" stroke-linecap="round"/>
<path d="M249.671 27.9717C249.671 27.9717 262.444 42.4112 263.257 62.0262C264.107 82.5039 249.671 96.0808 249.671 96.0808" stroke="black" stroke-width="9.28776" stroke-linecap="round"/>
</svg>
