<svg width="24" height="28" viewBox="0 0 24 28" fill="none" xmlns="http://www.w3.org/2000/svg">
<path fill-rule="evenodd" clip-rule="evenodd" d="M12 6.66647C13.62 6.66647 14.9333 5.35317 14.9333 3.73314C14.9333 2.1131 13.62 0.799805 12 0.799805C10.38 0.799805 9.06666 2.1131 9.06666 3.73314C9.06666 5.35317 10.38 6.66647 12 6.66647ZM0.266663 9.5998C0.266663 8.78979 0.923312 8.13314 1.73333 8.13314H8.33333H11.2667H12.7333H14.2H15.6667H22.2667C23.0767 8.13314 23.7333 8.78979 23.7333 9.5998C23.7333 10.4098 23.0767 11.0665 22.2667 11.0665H19.7C17.4724 11.0665 15.6667 12.8723 15.6667 15.0998L15.6667 25.7331C15.6667 26.5432 15.01 27.1998 14.2 27.1998C13.39 27.1998 12.7333 26.5432 12.7333 25.7331V19.1331C12.7333 18.7281 12.405 18.3998 12 18.3998C11.595 18.3998 11.2667 18.7281 11.2667 19.1331V25.7331C11.2667 26.5432 10.61 27.1998 9.79999 27.1998C8.98998 27.1998 8.33333 26.5432 8.33333 25.7331V18.3998V15.0998C8.33333 12.8723 6.52754 11.0665 4.3 11.0665H1.73333C0.923312 11.0665 0.266663 10.4098 0.266663 9.5998Z" fill="#1E1E1E"/>
</svg>
