<svg width="280" height="252" viewBox="0 0 280 252" fill="none" xmlns="http://www.w3.org/2000/svg">
<path d="M209.085 34.5688L173.913 77.8672L154.232 58.948" stroke="black" stroke-width="11.4508" stroke-linecap="round" stroke-linejoin="round"/>
<path d="M81.0947 31.9521H166.422C168.972 31.9522 171.039 34.0188 171.039 36.5684C171.039 39.1181 168.972 41.1855 166.422 41.1855H155.756C145.683 41.1856 137.518 49.3511 137.518 59.4238V103.611L137.512 103.849C137.388 106.288 135.371 108.229 132.9 108.229C130.351 108.228 128.283 106.161 128.283 103.611V76.1846C128.283 73.6856 126.258 71.6594 123.759 71.6592C121.26 71.6592 119.234 73.6854 119.233 76.1846V103.611C119.233 106.161 117.166 108.228 114.616 108.229C112.066 108.229 109.999 106.161 109.999 103.611V59.4238C109.999 49.3511 101.834 41.1856 91.7607 41.1855H81.0947C78.545 41.1855 76.4775 39.1181 76.4775 36.5684C76.4777 34.0188 78.5451 31.9522 81.0947 31.9521ZM123.759 1.47754C129.674 1.4778 134.47 6.27382 134.47 12.1895C134.47 18.1051 129.674 22.9011 123.759 22.9014C117.843 22.9014 113.047 18.1053 113.047 12.1895C113.047 6.27366 117.843 1.47754 123.759 1.47754Z" fill="black" stroke="black" stroke-width="2.95597"/>
<path d="M9.43988 239.128L0.399878 212.408H6.95988L13.0799 232.048L19.2399 212.408H25.8399L16.7599 239.128H9.43988ZM35.8549 239.608C34.0149 239.608 32.2949 239.235 30.6949 238.488C29.0949 237.741 27.8015 236.595 26.8149 235.048C25.8282 233.475 25.3349 231.501 25.3349 229.128C25.3349 226.728 25.8282 224.768 26.8149 223.248C27.8015 221.701 29.0949 220.568 30.6949 219.848C32.2949 219.101 34.0149 218.728 35.8549 218.728C37.6682 218.728 39.3749 219.101 40.9749 219.848C42.5749 220.568 43.8682 221.701 44.8549 223.248C45.8415 224.768 46.3349 226.728 46.3349 229.128C46.3349 231.501 45.8415 233.475 44.8549 235.048C43.8682 236.595 42.5749 237.741 40.9749 238.488C39.3749 239.235 37.6682 239.608 35.8549 239.608ZM35.8549 234.888C37.0815 234.888 38.0949 234.448 38.8949 233.568C39.7215 232.688 40.1349 231.208 40.1349 229.128C40.1349 227.021 39.7082 225.555 38.8549 224.728C38.0282 223.875 37.0282 223.448 35.8549 223.448C34.6549 223.448 33.6282 223.875 32.7749 224.728C31.9482 225.555 31.5349 227.021 31.5349 229.128C31.5349 231.208 31.9482 232.688 32.7749 233.568C33.6015 234.448 34.6282 234.888 35.8549 234.888ZM57.6646 239.128C56.0379 239.128 54.7446 238.995 53.7846 238.728C52.8246 238.435 52.1312 237.888 51.7046 237.088C51.3046 236.261 51.1046 235.075 51.1046 233.528V223.928H47.8246V219.288H51.1046V214.328H57.1846V219.288H61.5046V223.928H57.1846V231.928C57.1846 232.861 57.3579 233.475 57.7046 233.768C58.0779 234.035 58.7579 234.168 59.7446 234.168H61.5046V239.128H57.6646ZM73.9408 239.608C72.1008 239.608 70.3808 239.235 68.7808 238.488C67.1808 237.741 65.8875 236.595 64.9008 235.048C63.9141 233.475 63.4208 231.501 63.4208 229.128C63.4208 226.728 63.9141 224.768 64.9008 223.248C65.8875 221.701 67.1808 220.568 68.7808 219.848C70.3808 219.101 72.1008 218.728 73.9408 218.728C75.7541 218.728 77.4608 219.101 79.0608 219.848C80.6608 220.568 81.9541 221.701 82.9408 223.248C83.9275 224.768 84.4208 226.728 84.4208 229.128C84.4208 231.501 83.9275 233.475 82.9408 235.048C81.9541 236.595 80.6608 237.741 79.0608 238.488C77.4608 239.235 75.7541 239.608 73.9408 239.608ZM73.9408 234.888C75.1675 234.888 76.1808 234.448 76.9808 233.568C77.8075 232.688 78.2208 231.208 78.2208 229.128C78.2208 227.021 77.7941 225.555 76.9408 224.728C76.1141 223.875 75.1141 223.448 73.9408 223.448C72.7408 223.448 71.7141 223.875 70.8608 224.728C70.0341 225.555 69.6208 227.021 69.6208 229.128C69.6208 231.208 70.0341 232.688 70.8608 233.568C71.6875 234.448 72.7141 234.888 73.9408 234.888ZM98.403 239.128L108.523 212.408H115.483L125.603 239.128H118.723L117.123 234.368H106.883L105.283 239.128H98.403ZM108.603 229.248H115.403L111.963 219.088L108.603 229.248ZM136.94 239.608C134.754 239.608 132.9 239.168 131.38 238.288C129.887 237.408 128.74 236.181 127.94 234.608C127.167 233.008 126.78 231.168 126.78 229.088C126.78 227.008 127.207 225.195 128.06 223.648C128.914 222.075 130.1 220.861 131.62 220.008C133.167 219.155 134.94 218.728 136.94 218.728C138.087 218.728 139.22 218.888 140.34 219.208C141.487 219.528 142.54 220.075 143.5 220.848C144.487 221.595 145.287 222.621 145.9 223.928L140.82 225.768C140.5 224.915 140.02 224.315 139.38 223.968C138.767 223.621 138.074 223.448 137.3 223.448C136.58 223.448 135.887 223.635 135.22 224.008C134.554 224.355 134.007 224.941 133.58 225.768C133.18 226.595 132.98 227.715 132.98 229.128C132.98 230.568 133.194 231.715 133.62 232.568C134.047 233.395 134.58 233.995 135.22 234.368C135.887 234.715 136.58 234.888 137.3 234.888C138.154 234.888 138.874 234.728 139.46 234.408C140.047 234.061 140.514 233.595 140.86 233.008L145.82 234.808C145.154 236.008 144.327 236.968 143.34 237.688C142.354 238.381 141.3 238.875 140.18 239.168C139.087 239.461 138.007 239.608 136.94 239.608ZM158.441 239.608C156.308 239.608 154.415 239.195 152.761 238.368C151.135 237.515 149.855 236.301 148.921 234.728C148.015 233.155 147.561 231.275 147.561 229.088C147.561 226.981 148.041 225.155 149.001 223.608C149.988 222.061 151.281 220.861 152.881 220.008C154.508 219.155 156.281 218.728 158.201 218.728C160.388 218.728 162.255 219.248 163.801 220.288C165.375 221.301 166.561 222.715 167.361 224.528C168.161 226.315 168.495 228.381 168.361 230.728H153.681C153.788 232.115 154.295 233.155 155.201 233.848C156.135 234.541 157.161 234.888 158.281 234.888C159.215 234.888 160.015 234.755 160.681 234.488C161.375 234.195 161.908 233.835 162.281 233.408L167.121 235.168C166.081 236.688 164.775 237.808 163.201 238.528C161.655 239.248 160.068 239.608 158.441 239.608ZM153.681 227.128H162.721C162.695 225.848 162.255 224.888 161.401 224.248C160.548 223.581 159.535 223.248 158.361 223.248C157.215 223.248 156.188 223.555 155.281 224.168C154.401 224.781 153.868 225.768 153.681 227.128ZM179.818 239.608C177.498 239.608 175.484 239.181 173.778 238.328C172.098 237.475 170.871 236.221 170.098 234.568L175.258 232.688C175.551 233.515 176.111 234.141 176.938 234.568C177.791 234.968 178.791 235.168 179.938 235.168C180.924 235.168 181.791 235.021 182.538 234.728C183.311 234.408 183.698 233.941 183.698 233.328C183.698 232.901 183.471 232.541 183.018 232.248C182.564 231.955 181.764 231.715 180.618 231.528L177.058 230.928C175.138 230.608 173.578 229.955 172.378 228.968C171.178 227.981 170.578 226.661 170.578 225.008C170.578 223.621 170.991 222.461 171.818 221.528C172.671 220.595 173.791 219.901 175.178 219.448C176.564 218.968 178.071 218.728 179.698 218.728C181.591 218.728 183.338 219.075 184.938 219.768C186.564 220.435 187.751 221.555 188.498 223.128L183.378 225.008C183.191 224.288 182.751 223.808 182.058 223.568C181.364 223.301 180.564 223.168 179.658 223.168C177.471 223.168 176.378 223.701 176.378 224.768C176.378 225.168 176.564 225.501 176.938 225.768C177.311 226.008 177.938 226.208 178.818 226.368L182.498 227.048C184.898 227.475 186.671 228.101 187.818 228.928C188.964 229.755 189.538 230.995 189.538 232.648C189.538 234.195 189.098 235.488 188.218 236.528C187.338 237.568 186.164 238.341 184.698 238.848C183.231 239.355 181.604 239.608 179.818 239.608ZM200.755 239.608C198.435 239.608 196.422 239.181 194.715 238.328C193.035 237.475 191.809 236.221 191.035 234.568L196.195 232.688C196.489 233.515 197.049 234.141 197.875 234.568C198.729 234.968 199.729 235.168 200.875 235.168C201.862 235.168 202.729 235.021 203.475 234.728C204.249 234.408 204.635 233.941 204.635 233.328C204.635 232.901 204.409 232.541 203.955 232.248C203.502 231.955 202.702 231.715 201.555 231.528L197.995 230.928C196.075 230.608 194.515 229.955 193.315 228.968C192.115 227.981 191.515 226.661 191.515 225.008C191.515 223.621 191.929 222.461 192.755 221.528C193.609 220.595 194.729 219.901 196.115 219.448C197.502 218.968 199.009 218.728 200.635 218.728C202.529 218.728 204.275 219.075 205.875 219.768C207.502 220.435 208.689 221.555 209.435 223.128L204.315 225.008C204.129 224.288 203.689 223.808 202.995 223.568C202.302 223.301 201.502 223.168 200.595 223.168C198.409 223.168 197.315 223.701 197.315 224.768C197.315 225.168 197.502 225.501 197.875 225.768C198.249 226.008 198.875 226.208 199.755 226.368L203.435 227.048C205.835 227.475 207.609 228.101 208.755 228.928C209.902 229.755 210.475 230.995 210.475 232.648C210.475 234.195 210.035 235.488 209.155 236.528C208.275 237.568 207.102 238.341 205.635 238.848C204.169 239.355 202.542 239.608 200.755 239.608ZM215.814 239.128V223.888H212.054V219.288H221.934V239.128H215.814ZM214.814 216.168C215.56 215.261 216.294 214.368 217.014 213.488C217.76 212.581 218.507 211.675 219.254 210.768C219.654 210.288 220.2 210.048 220.894 210.048C221.534 210.048 222.067 210.261 222.494 210.688C222.92 211.115 223.134 211.648 223.134 212.288C223.134 212.981 222.88 213.541 222.374 213.968C221.867 214.315 221.36 214.675 220.854 215.048C220.374 215.421 219.88 215.795 219.374 216.168H214.814ZM230.205 239.128L223.125 219.288H229.405L233.645 232.808L237.885 219.288H244.165L237.045 239.128H230.205ZM255.629 239.608C253.496 239.608 251.602 239.195 249.949 238.368C248.322 237.515 247.042 236.301 246.109 234.728C245.202 233.155 244.749 231.275 244.749 229.088C244.749 226.981 245.229 225.155 246.189 223.608C247.176 222.061 248.469 220.861 250.069 220.008C251.696 219.155 253.469 218.728 255.389 218.728C257.576 218.728 259.442 219.248 260.989 220.288C262.562 221.301 263.749 222.715 264.549 224.528C265.349 226.315 265.682 228.381 265.549 230.728H250.869C250.976 232.115 251.482 233.155 252.389 233.848C253.322 234.541 254.349 234.888 255.469 234.888C256.402 234.888 257.202 234.755 257.869 234.488C258.562 234.195 259.096 233.835 259.469 233.408L264.309 235.168C263.269 236.688 261.962 237.808 260.389 238.528C258.842 239.248 257.256 239.608 255.629 239.608ZM250.869 227.128H259.909C259.882 225.848 259.442 224.888 258.589 224.248C257.736 223.581 256.722 223.248 255.549 223.248C254.402 223.248 253.376 223.555 252.469 224.168C251.589 224.781 251.056 225.768 250.869 227.128ZM275.005 239.128C273.379 239.128 272.085 238.995 271.125 238.728C270.165 238.435 269.472 237.888 269.045 237.088C268.645 236.261 268.445 235.075 268.445 233.528V212.408H274.525V231.928C274.525 232.861 274.712 233.475 275.085 233.768C275.459 234.035 276.152 234.168 277.165 234.168H278.885V239.128H275.005Z" fill="black"/>
</svg>
